<svg width="480" height="480" viewBox="0 0 480 480" fill="none" xmlns="http://www.w3.org/2000/svg">
<rect width="480" height="480" rx="80" fill="black"/>
<path d="M109.5 153.42C129.475 153.42 144.515 162.115 154.855 179.975C163.785 195.015 168.25 215.225 168.25 240.605C168.25 265.985 163.785 286.195 154.855 301.235C144.515 318.86 129.475 327.79 109.5 327.79C89.29 327.79 74.25 318.86 64.145 301.235C55.215 286.195 50.75 265.985 50.75 240.605C50.75 215.225 55.215 195.015 64.145 179.975C74.25 162.115 89.29 153.42 109.5 153.42ZM109.5 169.87C94.46 169.87 83.65 177.86 77.07 194.075C72.37 205.355 70.02 220.865 70.02 240.605C70.02 260.11 72.37 275.62 77.07 287.135C83.65 303.115 94.46 311.34 109.5 311.34C124.54 311.34 135.35 303.115 141.93 287.135C146.63 275.62 149.215 260.11 149.215 240.605C149.215 220.865 146.63 205.355 141.93 194.075C135.35 177.86 124.54 169.87 109.5 169.87ZM186.253 203.005H208.343L239.833 246.245L271.088 203.005H293.178L250.173 260.11L298.348 324.5H276.023L239.833 273.975L203.408 324.5H181.083L229.258 260.11L186.253 203.005ZM369.974 153.42C389.949 153.42 404.989 162.115 415.329 179.975C424.259 195.015 428.724 215.225 428.724 240.605C428.724 265.985 424.259 286.195 415.329 301.235C404.989 318.86 389.949 327.79 369.974 327.79C349.764 327.79 334.724 318.86 324.619 301.235C315.689 286.195 311.224 265.985 311.224 240.605C311.224 215.225 315.689 195.015 324.619 179.975C334.724 162.115 349.764 153.42 369.974 153.42ZM369.974 169.87C354.934 169.87 344.124 177.86 337.544 194.075C332.844 205.355 330.494 220.865 330.494 240.605C330.494 260.11 332.844 275.62 337.544 287.135C344.124 303.115 354.934 311.34 369.974 311.34C385.014 311.34 395.824 303.115 402.404 287.135C407.104 275.62 409.689 260.11 409.689 240.605C409.689 220.865 407.104 205.355 402.404 194.075C395.824 177.86 385.014 169.87 369.974 169.87Z" fill="white"/>
</svg>
